<svg xmlns="http://www.w3.org/2000/svg" viewBox="0 0 512 512">
  <path fill="#f9b348" d="m60.33 7.5-45 50.88 45 50.88h30V7.5h-30Z"/>
  <path fill="#f3da49" d="M7.5 7.5h52.83v101.75H7.5V7.5Z"/>
  <path fill="#61ce5b" d="m391.67 402.75-60 50.88 60 50.88h30V402.76h-30Z"/>
  <path fill="#94e368" d="M7.5 402.75h384.17V504.5H7.5V402.75Z"/>
  <path fill="#793bcc" d="m474.5 271-60 50.88 60 50.88h30V271.01h-30Z"/>
  <path fill="#9255e3" d="M7.5 271h467v101.75H7.5V271Z"/>
  <path fill="#28abfa" d="m226 139.25-60 50.88 60 50.88h30V139.26h-30Z"/>
  <path fill="#14cfff" d="M7.5 139.25H226V241H7.5V139.25Z"/>
  <path fill="#ffffff" d="M7.5 116.75h82.83c4.14 0 7.5-3.36 7.5-7.5V7.5c0-4.14-3.36-7.5-7.5-7.5H7.5C3.36 0 0 3.36 0 7.5v101.75c0 4.14 3.36 7.5 7.5 7.5ZM15 15h67.83v86.75H15V15ZM421.67 395.25H7.5c-4.14 0-7.5 3.36-7.5 7.5V504.5c0 4.14 3.36 7.5 7.5 7.5h414.17c4.14 0 7.5-3.36 7.5-7.5V402.75c0-4.14-3.36-7.5-7.5-7.5ZM414.17 497H15v-86.75h399.17V497ZM504.5 263.5H7.5c-4.14 0-7.5 3.36-7.5 7.5v101.75c0 4.14 3.36 7.5 7.5 7.5h497c4.14 0 7.5-3.36 7.5-7.5V271c0-4.14-3.36-7.5-7.5-7.5ZM497 365.25H15V278.5h482v86.75ZM7.5 248.5H256c4.14 0 7.5-3.36 7.5-7.5V139.25c0-4.14-3.36-7.5-7.5-7.5H7.5c-4.14 0-7.5 3.36-7.5 7.5V241c0 4.14 3.36 7.5 7.5 7.5ZM15 146.75h233.5v86.75H15v-86.75ZM379.41 225.57v21.94H278.09V98h33.23v127.57h68.09ZM459.6 98c22.77 0 52.71 9.23 52.09 48.61l-.21 49.43c0 36.1-30.56 51.27-55.37 51.27h-58.45V98h61.94Zm26.05 56.2c0-18.66-8-26.87-30.76-26.87h-24.2v87.58h26.05c14.77 0 28.92-5.13 28.92-23.59V154.2Z"/>
</svg>
